<svg xmlns="http://www.w3.org/2000/svg" xmlns:xlink="http://www.w3.org/1999/xlink" width="320" height="83.93144076873553" viewBox="0 0 320 83.93144076873553" class="css-1j8o68f"><defs id="SvgjsDefs2367"></defs><g id="SvgjsG2368" featurekey="S6ay6y-0" transform="matrix(1.1111078144689344,0,0,1.1111078144689344,-5.555718150657207,-13.590482019477788)" fill="#00A65C"><path xmlns="http://www.w3.org/2000/svg" fill-rule="evenodd" clip-rule="evenodd" d="M37.854,26.105c4.419,0.427,9.428,0.088,13.873,1.506  c9.941,3.172,12.788,12.875,6.951,21.616c-5.842,8.748-19.074,12.679-28.707,8.529c-5.733-2.47-8.564-7.035-8.386-13.493  c0.031-1.115,0.004-2.23,0.004-3.859c-1.384,1.08-2.314,2.11-3.474,2.62c-1.036,0.456-2.631,0.83-3.42,0.339  c-0.834-0.521-1.51-2.167-1.378-3.21c0.498-3.95,2.573-7.114,5.903-9.304c2.276-1.498,4.431-0.314,4.684,2.432  c0.073,0.803,0.011,1.618,0.011,2.586c3.181-2.606,6.212-5.089,9.882-8.096c-1.812,0.348-2.923,0.822-3.96,0.692  c-1.139-0.141-2.447-0.605-3.204-1.391c-0.354-0.366,0.118-2.113,0.728-2.727c3.469-3.495,7.695-5.516,12.689-5.434  c2.33,0.038,3.104,1.875,1.559,3.693C40.347,24.094,38.744,25.293,37.854,26.105z"></path><path xmlns="http://www.w3.org/2000/svg" fill-rule="evenodd" clip-rule="evenodd" d="M67.94,49.245c6.422,0.004,9.633,4.886,6.659,10.807  c-3.024,6.023-8.019,9.765-15.011,9.989c-6.783,0.217-9.113-4.218-6.999-10.354C54.57,53.937,61.87,49.242,67.94,49.245z"></path><path xmlns="http://www.w3.org/2000/svg" fill-rule="evenodd" clip-rule="evenodd" d="M74.326,45.595c-5.795-0.04-10.959-5.349-10.944-11.251  c0.01-4.357,3.075-7.577,7.186-7.55c5.739,0.039,11.674,6.009,11.645,11.717C82.191,42.906,79.158,45.627,74.326,45.595z"></path><path xmlns="http://www.w3.org/2000/svg" fill-rule="evenodd" clip-rule="evenodd" d="M36.197,75.248c-2.691-0.746-5.478-1.256-8.046-2.303  c-2.54-1.036-4.417-3.082-4.375-6.015c0.041-2.863,2.01-4.553,4.556-5.425c4.971-1.703,9.95-1.554,14.65,0.823  c2.614,1.323,4.723,3.389,4.095,6.751c-0.636,3.414-3.49,4.53-6.349,5.351c-1.381,0.397-2.913,0.271-4.377,0.383  C36.3,74.958,36.249,75.102,36.197,75.248z"></path><path xmlns="http://www.w3.org/2000/svg" fill-rule="evenodd" clip-rule="evenodd" d="M88.205,52.5c5.772-0.035,8.319,4.093,5.863,8.747  c-2.173,4.12-7.616,6.623-11.453,5.267c-3.709-1.311-5.093-4.566-3.344-8.096C81.184,54.559,84.474,52.786,88.205,52.5z"></path><path xmlns="http://www.w3.org/2000/svg" fill-rule="evenodd" clip-rule="evenodd" d="M46.266,87.77c-2.305-0.647-4.112-0.884-5.658-1.646  c-3.387-1.671-3.609-5.446-0.465-7.569c3.783-2.554,7.987-2.739,12.106-1.13c3.565,1.392,4.038,5.329,0.839,7.496  C51.013,86.325,48.388,86.917,46.266,87.77z"></path><path xmlns="http://www.w3.org/2000/svg" fill-rule="evenodd" clip-rule="evenodd" d="M57.453,27.11c-2.69-0.852-5.713-1.424-8.362-2.749  c-2.986-1.494-2.787-4.063,0.091-5.745c3.72-2.173,12.656-1.704,16.048,0.843c2.476,1.857,2.406,4.397-0.435,5.661  C62.648,26.075,60.217,26.391,57.453,27.11z"></path><path xmlns="http://www.w3.org/2000/svg" fill-rule="evenodd" clip-rule="evenodd" d="M23.009,56.955c0.223,2.711-0.844,4.873-3.298,5.907  c-2.602,1.095-4.785-0.288-6.373-2.243c-2.035-2.506-3.362-5.387-2.407-8.749c1.258-4.428,5.612-5.746,8.71-2.37  c1.798,1.958,2.784,4.662,4.135,7.029C23.521,56.671,23.265,56.813,23.009,56.955z"></path><path xmlns="http://www.w3.org/2000/svg" fill-rule="evenodd" clip-rule="evenodd" d="M75.446,15.578c2.298,1.132,4.353,1.767,5.882,3.037  c0.915,0.759,1.645,2.734,1.288,3.751c-0.365,1.041-2.194,2.245-3.323,2.188c-1.999-0.1-4.194-0.742-5.84-1.851  c-1.147-0.772-2.348-2.96-2.011-4.048C71.828,17.411,73.889,16.688,75.446,15.578z"></path><path xmlns="http://www.w3.org/2000/svg" fill-rule="evenodd" clip-rule="evenodd" d="M16.589,70.245c-0.965,1.368-1.612,3.255-2.71,3.568  c-1.08,0.307-3.025-0.646-3.847-1.653c-1.048-1.285-1.825-3.18-1.823-4.81c0.002-1.304,1.066-3.109,2.191-3.732  c0.768-0.426,2.856,0.455,3.629,1.366C15.165,66.325,15.651,68.213,16.589,70.245z"></path><path xmlns="http://www.w3.org/2000/svg" fill-rule="evenodd" clip-rule="evenodd" d="M45.207,17.008c-1.104-0.705-2.2-1.406-3.298-2.105  c1.098-0.819,2.091-2.043,3.317-2.354c1.657-0.42,3.54-0.396,5.239-0.088c1.749,0.317,2.037,1.67,0.427,2.551  C49.295,15.886,47.424,16.257,45.207,17.008z"></path><path xmlns="http://www.w3.org/2000/svg" fill-rule="evenodd" clip-rule="evenodd" d="M10.555,41.71c-0.106,3.194-2.276,6.416-3.938,6.2  c-0.639-0.083-1.572-1.251-1.612-1.966c-0.132-2.368,2.467-5.919,4.086-5.665C9.78,40.388,10.317,41.462,10.555,41.71z"></path><path xmlns="http://www.w3.org/2000/svg" fill-rule="evenodd" clip-rule="evenodd" d="M19.22,28.43c-0.552-1.517-1.03-2.235-0.991-2.923  c0.028-0.5,0.647-1.162,1.165-1.403c1.829-0.85,3.725-1.549,5.596-2.307c0.114,0.565,0.515,1.45,0.297,1.645  C23.54,25.011,21.674,26.448,19.22,28.43z"></path></g><g id="SvgjsG2369" featurekey="j5pGhi-0" transform="matrix(3.0904147675575295,0,0,3.0904147675575295,114.3559750643856,2.8538195052723943)" fill="#000000"><path d="M9.4043 12.5488 c1.5918 0.43945 2.6563 1.4844 2.6563 3.4961 c0 2.3828 -1.4453 3.9551 -4.4238 3.9551 l-5.8105 0 l0 -14.111 l4.5703 0 c3.0469 0 4.6484 1.4648 4.6484 3.8672 c0 1.2402 -0.53711 2.2559 -1.6406 2.793 z M6.4258 8.32 l-1.7773 0 l0 3.3203 l1.9043 0 c1.25 0 1.7969 -0.74219 1.7969 -1.6992 c0 -0.9375 -0.61523 -1.6211 -1.9238 -1.6211 z M7.0898 17.4902 c1.582 0 2.1289 -0.84961 2.1289 -1.7676 c0 -0.9375 -0.53711 -1.8262 -2.1875 -1.8262 l-2.3828 0 l0 3.5938 l2.4414 0 z M18.974596875 20.19531 c-3.1934 0 -5.498 -1.9434 -5.498 -5.2246 c0 -3.2617 2.2852 -5.2051 5.498 -5.2051 c3.2324 0 5.5078 1.9434 5.5078 5.2051 c0 3.2813 -2.2852 5.2246 -5.5078 5.2246 z M18.945296875 17.959 c1.6309 0 2.7441 -1.1914 2.7441 -2.9883 s-1.1133 -2.9883 -2.7441 -2.9883 c-1.5723 0 -2.6758 1.1914 -2.6758 2.9883 s1.1035 2.9883 2.6758 2.9883 z M32.4999875 9.766 c2.4121 0 3.7402 1.25 3.7402 3.4766 l0 6.7578 l-2.8223 0 l0 -6.1523 c0 -1.3379 -0.83008 -1.8262 -1.7969 -1.8262 c-1.1621 0 -2.2168 0.58594 -2.2363 2.4414 l0 5.5371 l-2.8125 0 l0 -10.039 l2.8125 0 l0 1.1133 c0.70313 -0.83008 1.7871 -1.3086 3.1152 -1.3086 z M44.892565625 9.766 c2.4121 0 3.7402 1.25 3.7402 3.4766 l0 6.7578 l-2.8223 0 l0 -6.1523 c0 -1.3379 -0.83008 -1.8262 -1.7969 -1.8262 c-1.1621 0 -2.2168 0.58594 -2.2363 2.4414 l0 5.5371 l-2.8125 0 l0 -10.039 l2.8125 0 l0 1.1133 c0.70313 -0.83008 1.7871 -1.3086 3.1152 -1.3086 z M52.79294375 8.457 c-0.88867 0 -1.6309 -0.72266 -1.6309 -1.6211 c0 -0.88867 0.74219 -1.6113 1.6309 -1.6113 c0.86914 0 1.6113 0.72266 1.6113 1.6113 c0 0.89844 -0.74219 1.6211 -1.6113 1.6211 z M51.35744375 20 l0 -10.039 l2.832 0 l0 10.039 l-2.832 0 z M66.54253125 14.834 l-0.029297 0.67383 l-7.4414 0 c0.11719 1.6699 1.2305 2.4707 2.5684 2.4707 c1.0059 0 1.7871 -0.46875 2.168 -1.3574 l2.5781 0.38086 c-0.66406 2.0313 -2.4707 3.1934 -4.7266 3.1934 c-3.2422 0 -5.3613 -1.9141 -5.3613 -5.2148 s2.1777 -5.2344 5.2734 -5.2344 c2.8418 0 4.9609 1.5723 4.9707 5.0879 z M61.59183125 11.7383 c-1.2793 0 -2.168 0.5957 -2.4414 1.9336 l4.6094 0 c-0.14648 -1.2793 -1.0156 -1.9336 -2.168 -1.9336 z"></path></g></svg>