<?xml version="1.0" standalone="no"?>
<!DOCTYPE svg PUBLIC "-//W3C//DTD SVG 20010904//EN"
 "http://www.w3.org/TR/2001/REC-SVG-20010904/DTD/svg10.dtd">
<svg version="1.0" xmlns="http://www.w3.org/2000/svg"
 width="260.000000pt" height="260.000000pt" viewBox="0 0 260.000000 260.000000"
 preserveAspectRatio="xMidYMid meet">
<metadata>
Created by potrace 1.14, written by Peter Selinger 2001-2017
</metadata>
<g transform="translate(0.000000,260.000000) scale(0.100000,-0.100000)"
fill="#000000" stroke="none">
<path d="M1194 2213 c-12 -2 -36 -16 -54 -31 l-32 -28 39 -26 39 -26 57 18
c102 32 136 70 81 90 -25 10 -89 11 -130 3z"/>
<path d="M1877 2109 c-47 -29 -51 -36 -47 -74 5 -55 75 -103 164 -112 45 -5
54 -2 80 21 23 23 27 32 22 58 -9 44 -31 65 -107 103 l-65 33 -47 -29z"/>
<path d="M1363 2090 c-125 -26 -172 -110 -90 -161 58 -35 195 -72 246 -65 114
16 201 65 201 113 0 29 -73 87 -125 101 -65 18 -179 23 -232 12z"/>
<path d="M909 2026 c-92 -38 -166 -101 -171 -146 -2 -20 4 -29 36 -44 32 -16
46 -17 82 -9 24 6 41 7 39 3 -3 -5 -54 -49 -115 -99 l-110 -91 0 45 c0 35 -6
52 -25 70 -32 33 -53 31 -103 -5 -55 -40 -99 -102 -118 -166 -35 -123 41 -173
142 -93 l39 31 11 -109 c12 -131 35 -184 105 -247 134 -120 376 -135 576 -36
153 75 255 201 283 346 27 137 -38 266 -170 338 -58 32 -175 56 -270 56 -37 0
-81 3 -97 6 l-30 6 49 46 c52 48 68 83 48 107 -20 24 -133 19 -201 -9z"/>
<path d="M611 1951 c-35 -16 -68 -35 -72 -44 -9 -15 7 -77 20 -77 18 0 141
114 141 131 0 25 -12 23 -89 -10z"/>
<path d="M1713 1836 c-111 -69 -111 -239 1 -352 77 -76 170 -101 259 -70 73
27 110 80 110 161 0 137 -128 272 -266 282 -54 4 -68 1 -104 -21z"/>
<path d="M268 1511 c-37 -29 -64 -96 -52 -129 11 -30 46 -41 70 -21 42 35 68
131 42 157 -17 17 -31 15 -60 -7z"/>
<path d="M418 1334 c-60 -32 -86 -142 -53 -221 50 -119 144 -171 222 -123 38
23 51 44 62 107 8 42 6 53 -21 108 -67 132 -132 172 -210 129z"/>
<path d="M1622 1291 c-160 -55 -272 -195 -272 -340 0 -187 291 -205 463 -28
102 105 143 244 91 314 -50 69 -170 92 -282 54z"/>
<path d="M2156 1215 c-118 -42 -190 -180 -139 -266 20 -34 86 -69 129 -69 156
0 296 169 235 283 -31 57 -140 83 -225 52z"/>
<path d="M832 1025 c-120 -26 -168 -77 -160 -167 8 -81 55 -119 201 -159 124
-35 294 3 338 75 25 41 25 111 0 153 -34 54 -186 115 -285 112 -17 0 -59 -7
-94 -14z"/>
<path d="M334 952 c-23 -16 -44 -58 -44 -90 0 -70 65 -152 121 -152 23 0 33 9
55 45 l26 45 -30 64 c-36 77 -90 114 -128 88z"/>
<path d="M1135 627 c-120 -47 -158 -126 -92 -192 62 -62 177 -73 280 -27 73
34 96 57 103 103 7 51 -23 93 -82 113 -55 18 -165 20 -209 3z"/>
</g>
</svg>
